# xmcd CD database file
#
# Track frame offsets:
#	150
#	11175
#	32797
#	48510
#	76025
#	96510
#	111997
#	128062
#	147950
#	171160
#	184650
#	202185
#	217350
#	232635
#
# Disc length: 3282 seconds
#
# Revision: 0
# Processed by: cddbd v1.5.1PL0 Copyright (c) Steve Scherf et al.
# Submitted via: CDex 1.51
#
DISCID=c90cd00e
DTITLE=Various Artist - The Best of Blue Balls Music
DYEAR=1900
DGENRE=Blues
TTITLE0=Screamin 'Jay Hawkins - I Put A Spell On You
TTITLE1=Bo Diddlsy - Hey Baby
TTITLE2=Johnny Winter - Leland Mississippi Blues
TTITLE3=Lucky Peterson Bird in The Hand
TTITLE4=Popa Chubby - Shakedown
TTITLE5=Keb Mo - Just Like You
TTITLE6=Taj Mahal - Going Up To The Country, Paint My Mailbox Blue
TTITLE7=Buddy Guy - Damn Right, I've Got The Blues
TTITLE8=Joe Louis Walker - Blues Of The Month Club
TTITLE9=Otis Rush - You're Killing My Love
TTITLE10=Clarence Gatemouth Brown - Sunrise Cajun Style
TTITLE11=Robert Cray - 24-7 Man
TTITLE12=Dr. John - Big Chief
TTITLE13=Nina Simone - My Baby Just Cares For Me
EXTD=
EXTT0=
EXTT1=
EXTT2=
EXTT3=
EXTT4=
EXTT5=
EXTT6=
EXTT7=
EXTT8=
EXTT9=
EXTT10=
EXTT11=
EXTT12=
EXTT13=
PLAYORDER=
